<?xml version="1.0" standalone="no"?>
<!DOCTYPE svg PUBLIC "-//W3C//DTD SVG 1.1//EN" "http://www.w3.org/Graphics/SVG/1.1/DTD/svg11.dtd" >
<svg xmlns="http://www.w3.org/2000/svg">
<metadata>Generated by IcoMoon</metadata>
<defs>
<font id="icomoon" horiz-adv-x="1024">
<font-face units-per-em="1024" ascent="960" descent="-64" />
<missing-glyph horiz-adv-x="1024" />
<glyph unicode="&#x20;" horiz-adv-x="512" d="" />
<glyph unicode="&#xe900;" glyph-name="arrow" horiz-adv-x="683" d="M51.2 840.533l119.467 119.467 512-512-512-512-119.467 119.467 392.533 392.533-392.533 392.533z" />
<glyph unicode="&#xe901;" glyph-name="close" d="M512-64c282.778 0 512 229.222 512 512s-229.222 512-512 512-512-229.222-512-512 229.222-512 512-512zM254.054 638.054l190.054-190.054-190.054-190.054 67.891-67.891 190.054 190.054 190.054-190.054 67.891 67.891-190.054 190.054 190.054 190.054-67.891 67.891-190.054-190.054-190.054 190.054-67.891-67.891z" />
<glyph unicode="&#xe902;" glyph-name="cross" d="M1024 856.869l-103.131 103.131-408.869-408.869-408.869 408.869-103.131-103.131 408.869-408.869-408.869-408.869 103.131-103.131 408.869 408.869 408.869-408.869 103.131 103.131-408.869 408.869 408.869 408.869z" />
<glyph unicode="&#xe903;" glyph-name="delete" horiz-adv-x="796" d="M56.889 49.778c0-62.578 51.2-113.778 113.778-113.778h455.111c62.578 0 113.778 51.2 113.778 113.778v682.667h-682.667v-682.667zM796.444 903.111h-199.111l-56.889 56.889h-284.444l-56.889-56.889h-199.111v-113.778h796.444v113.778z" />
<glyph unicode="&#xe904;" glyph-name="done" horiz-adv-x="1317" d="M409.6 184.686l-307.2 307.2-102.4-102.4 409.6-409.6 877.714 877.714-102.4 102.4-775.314-775.314z" />
<glyph unicode="&#xe905;" glyph-name="dots" horiz-adv-x="256" d="M128 704c70.4 0 128 57.6 128 128s-57.6 128-128 128-128-57.6-128-128 57.6-128 128-128zM128 576c-70.4 0-128-57.6-128-128s57.6-128 128-128 128 57.6 128 128-57.6 128-128 128zM128 192c-70.4 0-128-57.6-128-128s57.6-128 128-128 128 57.6 128 128-57.6 128-128 128z" />
<glyph unicode="&#xe906;" glyph-name="extended" horiz-adv-x="862" d="M439.134 960l-404.211-985.735 38.265-38.265 365.945 161.684 365.945-161.684 38.265 38.265-404.211 985.735z" />
<glyph unicode="&#xe907;" glyph-name="eye" horiz-adv-x="1502" d="M750.933 960c-341.333 0-632.832-212.309-750.933-512 118.101-299.691 409.6-512 750.933-512s632.832 212.309 750.933 512c-118.101 299.691-409.6 512-750.933 512zM750.933 106.667c-188.416 0-341.333 152.917-341.333 341.333s152.917 341.333 341.333 341.333 341.333-152.917 341.333-341.333-152.917-341.333-341.333-341.333zM750.933 652.8c-113.323 0-204.8-91.477-204.8-204.8s91.477-204.8 204.8-204.8 204.8 91.477 204.8 204.8-91.477 204.8-204.8 204.8z" />
<glyph unicode="&#xe908;" glyph-name="fail" d="M512 960c-282.624 0-512-229.376-512-512s229.376-512 512-512 512 229.376 512 512-229.376 512-512 512zM563.2 192h-102.4v102.4h102.4v-102.4zM563.2 396.8h-102.4v307.2h102.4v-307.2z" />
<glyph unicode="&#xe909;" glyph-name="filter" horiz-adv-x="1536" d="M512-64h512v170.667h-512v-170.667zM0 960v-170.667h1536v170.667h-1536zM256 362.667h1024v170.667h-1024v-170.667z" />
<glyph unicode="&#xe90a;" glyph-name="help" horiz-adv-x="1075" d="M537.6 960c-282.624 0-512-229.376-512-512s229.376-512 512-512 512 229.376 512 512-229.376 512-512 512zM588.8 89.6h-102.4v102.4h102.4v-102.4zM694.784 486.4l-46.080-47.104c-36.864-37.376-59.904-68.096-59.904-144.896h-102.4v25.6c0 56.32 23.040 107.52 59.904 144.896l63.488 64.512c18.944 18.432 30.208 44.032 30.208 72.192 0 56.32-46.080 102.4-102.4 102.4s-102.4-46.080-102.4-102.4h-102.4c0 113.152 91.648 204.8 204.8 204.8s204.8-91.648 204.8-204.8c0-45.056-18.432-86.016-47.616-115.2z" />
<glyph unicode="&#xe90b;" glyph-name="like" horiz-adv-x="1132" d="M565.895-28.968l-78.147 71.141c-277.558 251.688-460.8 417.684-460.8 621.406 0 165.996 130.425 296.421 296.421 296.421 93.777 0 183.781-43.655 242.526-112.64 58.745 68.985 148.749 112.64 242.526 112.64 165.996 0 296.421-130.425 296.421-296.421 0-203.722-183.242-369.718-460.8-621.945l-78.147-70.602z" />
<glyph unicode="&#xe90c;" glyph-name="like-2" horiz-adv-x="1078" d="M781.474 960c-93.777 0-183.781-43.655-242.526-112.64-58.745 68.985-148.749 112.64-242.526 112.64-165.996 0-296.421-130.425-296.421-296.421 0-203.722 183.242-369.718 460.8-621.945l78.147-70.602 78.147 71.141c277.558 251.688 460.8 417.684 460.8 621.406 0 165.996-130.425 296.421-296.421 296.421zM544.337 121.937l-5.389-5.389-5.389 5.389c-256.539 232.286-425.768 385.886-425.768 541.642 0 107.789 80.842 188.632 188.632 188.632 82.998 0 163.84-53.356 192.404-127.192h100.783c28.025 73.836 108.867 127.192 191.865 127.192 107.789 0 188.632-80.842 188.632-188.632 0-155.756-169.229-309.356-425.768-541.642z" />
<glyph unicode="&#xe90d;" glyph-name="local" horiz-adv-x="731" d="M358.4 960c-0.076 0-0.166 0-0.256 0-197.797 0-358.144-160.347-358.144-358.144 0-0.090 0-0.18 0-0.27v0.014c0-268.8 358.4-665.6 358.4-665.6s358.4 396.8 358.4 665.6c0 198.144-160.256 358.4-358.4 358.4zM358.4 473.6c-70.692 0-128 57.308-128 128s57.308 128 128 128v0c70.692 0 128-57.308 128-128s-57.308-128-128-128v0z" />
<glyph unicode="&#xe90e;" glyph-name="login" d="M512 960c-282.624 0-512-229.376-512-512s229.376-512 512-512 512 229.376 512 512-229.376 512-512 512zM512 806.4c84.992 0 153.6-68.608 153.6-153.6s-68.608-153.6-153.6-153.6-153.6 68.608-153.6 153.6 68.608 153.6 153.6 153.6zM512 79.36c0 0-0.001 0-0.002 0-127.681 0-240.201 64.912-306.36 163.536l-0.839 1.328c1.536 101.888 204.8 157.696 307.2 157.696 101.888 0 305.664-55.808 307.2-157.696-66.997-99.952-179.517-164.864-307.198-164.864-0.001 0-0.001 0-0.002 0v0z" />
<glyph unicode="&#xe90f;" glyph-name="mail" horiz-adv-x="1280" d="M1152 960h-1024c-70.4 0-127.36-57.6-127.36-128l-0.64-768c0-70.4 57.6-128 128-128h1024c70.4 0 128 57.6 128 128v768c0 70.4-57.6 128-128 128zM1152 704l-512-320-512 320v128l512-320 512 320v-128z" />
<glyph unicode="&#xe910;" glyph-name="menu" horiz-adv-x="1536" d="M43.435 789.333v170.667h1492.565v-170.667h-1492.565zM43.435 533.333v-170.667h1492.565v170.667h-1492.565zM43.435 106.667v-170.667h1492.565v170.667h-1492.565z" />
<glyph unicode="&#xe911;" glyph-name="next-prev" d="M0-64l725.333 512-725.333 512v-1024zM853.333 960v-1024h170.667v1024h-170.667z" />
<glyph unicode="&#xe912;" glyph-name="notification" horiz-adv-x="819" d="M409.6-64c56.32 0 102.4 46.080 102.4 102.4h-204.8c0-56.554 45.846-102.4 102.4-102.4v0zM716.8 243.2v256c0 157.184-83.968 288.768-230.4 323.584v34.816c0 42.496-34.304 76.8-76.8 76.8s-76.8-34.304-76.8-76.8v-34.816c-146.944-34.816-230.4-165.888-230.4-323.584v-256l-102.4-102.4v-51.2h819.2v51.2l-102.4 102.4z" />
<glyph unicode="&#xe913;" glyph-name="pen" d="M0 191.892v-202.105h202.105l596.076 596.076-202.105 202.105-596.076-596.076zM954.476 742.157c9.737 9.718 15.761 23.153 15.761 37.996s-6.024 28.278-15.76 37.995l-126.115 126.115c-9.718 9.737-23.153 15.761-37.996 15.761s-28.278-6.024-37.995-15.76l-98.628-98.628 202.105-202.105 98.627 98.627z" />
<glyph unicode="&#xe914;" glyph-name="phone" d="M205.938 516.836c84.058-162.003 212.896-290.841 370.12-372.636l4.778-2.262 125.156 125.156c15.36 15.36 38.116 20.48 58.027 13.653 63.716-21.049 132.551-32.427 203.093-32.427 31.289 0 56.889-25.6 56.889-56.889v-198.542c0-31.289-25.6-56.889-56.889-56.889-534.187 0-967.111 432.924-967.111 967.111 0 31.289 25.6 56.889 56.889 56.889h199.111c31.289 0 56.889-25.6 56.889-56.889 0-71.111 11.378-139.378 32.427-203.093 6.258-19.911 1.707-42.098-14.222-58.027l-125.156-125.156z" />
<glyph unicode="&#xe915;" glyph-name="plus" d="M1024 521.143h-438.857v438.857h-146.286v-438.857h-438.857v-146.286h438.857v-438.857h146.286v438.857h438.857v146.286z" />
<glyph unicode="&#xe916;" glyph-name="save" d="M796.416 960h-682.624c-62.848 0-113.792-50.944-113.792-113.792v-796.416c0-62.848 50.944-113.792 113.792-113.792h796.416c62.592 0 113.792 51.2 113.792 113.792v682.624l-227.584 227.584zM512 49.792c-0.076 0-0.166 0-0.256 0-94.127 0-170.432 76.305-170.432 170.432 0 0.068 0 0.135 0 0.203v-0.010c0 0.076 0 0.166 0 0.256 0 94.127 76.305 170.432 170.432 170.432 0.090 0 0.18 0 0.27 0h-0.014c0.076 0 0.166 0 0.256 0 94.127 0 170.432-76.305 170.432-170.432 0-0.090 0-0.18 0-0.27v0.014c0-0.057 0-0.125 0-0.192 0-94.127-76.305-170.432-170.432-170.432-0.090 0-0.18 0-0.27 0h0.014zM682.688 618.688h-568.96v227.52h568.96v-227.52z" />
<glyph unicode="&#xe917;" glyph-name="search" d="M711.111 334.222h-44.942l-15.929 15.36c55.5 64.093 89.316 148.287 89.316 240.379 0 0.092 0 0.184 0 0.276v-0.014c0 204.223-165.555 369.778-369.778 369.778s-369.778-165.555-369.778-369.778c0-204.223 165.555-369.778 369.778-369.778v0c91.591 0 175.787 33.564 240.64 89.316l15.36-15.929v-44.942l284.444-283.876 84.764 84.764-283.876 284.444zM369.778 334.222c-141.653 0-256 114.347-256 256s114.347 256 256 256 256-114.347 256-256-114.347-256-256-256z" />
<glyph unicode="&#xe918;" glyph-name="send" horiz-adv-x="1152" d="M0.576-27.456l1151.424 493.76-1151.424 493.696-0.576-384 822.848-109.696-822.848-109.824 0.576-384z" />
<glyph unicode="&#xe919;" glyph-name="share" horiz-adv-x="922" d="M768 239.104c-38.912 0-73.728-15.36-100.352-39.424l-365.056 212.48c2.56 11.776 4.608 23.552 4.608 35.84s-2.048 24.064-4.608 35.84l360.96 210.432c27.648-25.6 64-41.472 104.448-41.472 84.992 0 153.6 68.608 153.6 153.6s-68.608 153.6-153.6 153.6-153.6-68.608-153.6-153.6c0-12.288 2.048-24.064 4.608-35.84l-360.96-210.432c-27.648 25.6-64 41.472-104.448 41.472-84.992 0-153.6-68.608-153.6-153.6s68.608-153.6 153.6-153.6c40.448 0 76.8 15.872 104.448 41.472l364.544-212.992c-2.56-10.752-4.096-22.016-4.096-33.28 0-82.432 67.072-149.504 149.504-149.504s149.504 67.072 149.504 149.504c0 82.432-67.072 149.504-149.504 149.504z" />
<glyph unicode="&#xe91a;" glyph-name="star" horiz-adv-x="1078" d="M538.947 137.027l333.069-201.027-88.387 378.88 294.265 254.922-387.503 32.876-151.444 357.322-151.444-357.322-387.503-32.876 294.265-254.922-88.387-378.88 333.069 201.027z" />
<glyph unicode="&#xe91b;" glyph-name="sticker" d="M358.4 460.8c-35.346 0-64-28.654-64-64s28.654-64 64-64v0c35.346 0 64 28.654 64 64s-28.654 64-64 64v0zM665.6 460.8c-35.346 0-64-28.654-64-64s28.654-64 64-64v0c35.346 0 64 28.654 64 64s-28.654 64-64 64v0zM512 960c-282.624 0-512-229.376-512-512s229.376-512 512-512 512 229.376 512 512-229.376 512-512 512zM512 38.4c-226.099 0.291-409.309 183.501-409.6 409.572v0.028c0 14.848 1.024 29.696 2.56 44.032 121.154 54.965 215.297 151.766 265.489 271.547l1.263 3.397c93.632-131.654 245.636-216.503 417.458-216.503 40.976 0 80.824 4.826 119.008 13.939l-3.475-0.7c10.752-36.352 16.896-75.264 16.896-115.712 0-225.792-183.808-409.6-409.6-409.6z" />
<glyph unicode="&#xe91c;" glyph-name="triangle" horiz-adv-x="1303" d="M0 960l651.636-1024 651.636 1024h-1303.273z" />
<glyph unicode="&#xe91d;" glyph-name="upload" horiz-adv-x="1536" d="M1238.4 573.44c-44.94 221.879-238.384 386.56-470.292 386.56-0.038 0-0.076 0-0.115 0h0.006c-184.96 0-345.6-104.96-425.6-258.56-193.383-21.508-342.4-184.050-342.4-381.395 0-0.016 0-0.031 0-0.047v0.002c0-211.84 172.16-384 384-384h832c176.64 0 320 143.36 320 320 0 168.96-131.2 305.92-297.6 317.44zM896 384v-256h-256v256h-192l320 320 320-320h-192z" />
<glyph unicode="&#xe91e;" glyph-name="voice" horiz-adv-x="755" d="M377.263 313.263c89.465 0 161.145 72.219 161.145 161.684l0.539 323.368c0 89.465-72.219 161.684-161.684 161.684s-161.684-72.219-161.684-161.684v-323.368c0-89.465 72.219-161.684 161.684-161.684zM662.905 474.947c0-161.684-136.893-274.863-285.642-274.863s-285.642 113.179-285.642 274.863h-91.621c0-184.32 146.594-335.764 323.368-362.173v-176.775h107.789v176.775c176.775 25.869 323.368 177.853 323.368 362.173h-91.621z" />
</font>
</defs>
</svg>
