<svg width="16" height="16" viewBox="0 0 16 16" fill="none" xmlns="http://www.w3.org/2000/svg">
<path fill-rule="evenodd" clip-rule="evenodd" d="M5.6001 7.8C5.04781 7.8 4.6001 8.24771 4.6001 8.8C4.6001 9.35229 5.04781 9.8 5.6001 9.8C6.15238 9.8 6.6001 9.35229 6.6001 8.8C6.6001 8.24771 6.15238 7.8 5.6001 7.8ZM10.3999 7.8C9.84762 7.8 9.3999 8.24771 9.3999 8.8C9.3999 9.35229 9.84762 9.8 10.3999 9.8C10.9522 9.8 11.3999 9.35229 11.3999 8.8C11.3999 8.24771 10.9522 7.8 10.3999 7.8ZM8 0C3.584 0 0 3.584 0 8C0 12.416 3.584 16 8 16C12.416 16 16 12.416 16 8C16 3.584 12.416 0 8 0ZM8.0001 14.4001C4.4721 14.4001 1.6001 11.5281 1.6001 8.00015C1.6001 7.76815 1.6161 7.53615 1.6401 7.31215C3.5281 6.47215 5.0241 4.92815 5.8081 3.01615C7.67898 5.67109 10.9724 6.92709 14.1361 6.19215C14.3041 6.76015 14.4001 7.36815 14.4001 8.00015C14.4001 11.5281 11.5281 14.4001 8.0001 14.4001Z" fill="black" fill-opacity="0.54"/>
</svg>
